<?xml version="1.0" standalone="no"?>
<!DOCTYPE svg PUBLIC "-//W3C//DTD SVG 1.1//EN" "http://www.w3.org/Graphics/SVG/1.1/DTD/svg11.dtd" >
<svg xmlns="http://www.w3.org/2000/svg" xmlns:xlink="http://www.w3.org/1999/xlink" version="1.1">
<metadata></metadata>
<defs>
<font id="futwora_probold" horiz-adv-x="638" >
<font-face units-per-em="2048" ascent="1638" descent="-410" />
<missing-glyph horiz-adv-x="641" />
<glyph horiz-adv-x="0" />
<glyph unicode="&#xd;" horiz-adv-x="681" />
<glyph unicode=" "  horiz-adv-x="641" />
<glyph unicode="&#x09;" horiz-adv-x="641" />
<glyph unicode="&#xa0;" horiz-adv-x="641" />
<glyph unicode="!" d="M147 157.5q0 -71.5 51.5 -121.5t121 -50t121 50t51.5 121.5t-51.5 122t-121 50.5t-121 -50.5t-51.5 -122zM184 487v1135h271v-1135h-271z" />
<glyph unicode="&#x22;" horiz-adv-x="712" d="M76 877v561h219v-561h-219zM416 877v561h223v-561h-223z" />
<glyph unicode="#" horiz-adv-x="1574" d="M0 399l100 217h240l113 254h-234l100 217h228l176 400h221l-176 -400h283l174 400h221l-174 -400h246l-101 -217h-239l-111 -254h231l-100 -217h-225l-176 -399h-224l177 399h-281l-176 -399h-223l176 399h-246zM563 616h281l110 254h-280z" />
<glyph unicode="$" horiz-adv-x="1280" d="M98 238l205 204q170 -170 371 -166q102 -2 160 48q47 41 57 93t-41 126q-31 43 -109 90q-33 18 -171 83.5t-214 119.5q-166 117 -186 303q-2 16 -2 49q-2 92 40 174t114 133q109 82 266 96v97h96v-97q238 -20 406 -188l-205 -205q-104 104 -252 105q-84 2 -137 -39 q-43 -43 -39 -89.5t41 -78.5q35 -35 125 -82q25 -12 114.5 -54t158.5 -82.5t126 -93.5q154 -139 152 -350q2 -100 -41 -190t-117 -148q-133 -106 -332 -110v-92h-96v98q-279 35 -490 246z" />
<glyph unicode="%" horiz-adv-x="2048" d="M45 0l1575 1577h383l-1575 -1577h-383zM45 1204.5q0 -153.5 108.5 -262t262 -108.5t263 108.5t109.5 262t-109.5 263t-263 109.5t-262 -109.5t-108.5 -263zM315 1204q0 41 30 71t71 30t70.5 -30t29.5 -71t-29.5 -70.5t-70.5 -29.5t-71 29.5t-30 70.5zM1260 370.5 q0 -153.5 109.5 -262t263 -108.5t262 108.5t108.5 262t-108.5 263t-262 109.5t-263 -109.5t-109.5 -263zM1532 371q0 41 29.5 70.5t70.5 29.5t71 -29.5t30 -70.5t-30 -71t-71 -30t-70.5 30t-29.5 71z" />
<glyph unicode="&#x26;" horiz-adv-x="1402" d="M143 506q0 231 179 387q-104 121 -105 281q0 180 127 306t307 126q182 0 310 -131l-195 -191q-49 49 -114.5 49t-112.5 -47t-47 -112.5t47 -112.5t112 -47v-273q-98 -2 -166.5 -69.5t-68.5 -165.5q0 -96 69.5 -165t166 -69t165 69t68.5 165v508h446v-273h-174v-235 q0 -209 -148.5 -357.5t-357.5 -148.5q-211 0 -359.5 148.5t-148.5 357.5z" />
<glyph unicode="'" horiz-adv-x="641" d="M154 1423q0 72 50 122t122 50q70 0 120 -51t50 -121q0 -125 -84 -219t-209 -110v41q53 6 95 39.5t58 82.5q-20 -4 -30 -4q-70 0 -121 50.5t-51 119.5z" />
<glyph unicode="(" horiz-adv-x="1024" d="M131 610q0 354 155.5 664.5t426.5 517.5l178 -229q-219 -168 -344 -417t-125 -536q0 -283 124 -530.5t341 -417.5l-178 -229q-268 209 -423 517t-155 660z" />
<glyph unicode=")" horiz-adv-x="1024" d="M131 -338q219 168 344 417t125 535q0 283 -124 531t-341 418l178 229q268 -209 423 -517.5t155 -660.5q0 -354 -155.5 -664t-426.5 -517z" />
<glyph unicode="*" horiz-adv-x="1067" d="M188 1034v164l187 -16l-144 121l117 116l121 -145l-16 188h163l-16 -188l121 145l117 -116l-146 -121l189 16v-164l-189 21l146 -125l-117 -117l-121 145l16 -188h-163l16 188l-121 -145l-117 117l144 125z" />
<glyph unicode="+" horiz-adv-x="1705" d="M254 496v231h481v494h238v-494h479v-231h-479v-496h-238v496h-481z" />
<glyph unicode="," d="M147 155.5q0 69.5 51.5 121t121 51.5t119.5 -51.5t50 -120.5q0 -125 -83.5 -219.5t-208.5 -110.5v41q53 6 95 40t58 83q-20 -4 -31 -4q-70 0 -121 50t-51 119.5z" />
<glyph unicode="-" horiz-adv-x="933" d="M176 494v235h578v-235h-578z" />
<glyph unicode="." d="M150 156q0 72 50 122t119.5 50t119.5 -50t50 -122q0 -70 -50 -120t-119.5 -50t-119.5 50t-50 120z" />
<glyph unicode="/" horiz-adv-x="1222" d="M111 0l716 1577h297l-714 -1577h-299z" />
<glyph unicode="0" horiz-adv-x="1331" d="M143 506v571q0 211 154 369q152 152 369 151.5t369.5 -153t152.5 -367.5v-571q0 -215 -154 -369q-152 -152 -368.5 -151.5t-369.5 153t-153 367.5zM416 506q0 -102 73 -176t177 -74q102 0 175.5 73.5t73.5 176.5v571q0 102 -73.5 176t-175.5 74q-104 0 -177 -73.5 t-73 -176.5v-571z" />
<glyph unicode="1" horiz-adv-x="993" d="M61 0v244h306v919l-306 -149v270l584 299v-1339h307v-244h-891z" />
<glyph unicode="2" horiz-adv-x="1230" d="M82 1075q0 213 151.5 364.5t366.5 151.5t367.5 -152.5t152.5 -367.5q0 -178 -108 -315l-389 -506h532v-250h-1069l711 922q51 68 51 149q0 102 -73 175t-175 73t-174 -71.5t-74 -172.5h-270z" />
<glyph unicode="3" horiz-adv-x="1216" d="M82 500h270q4 -102 77 -173t173 -71q104 0 177 73.5t73 178.5q0 102 -72.5 176t-177.5 74q-102 0 -176 -74l-193 193l435 430h-529v270h914v-270h-2l2 -2l-301 -297q127 -39 219 -131q154 -154 154 -370t-154 -368q-152 -154 -369 -153q-215 0 -369 153 q-147 145 -151 361z" />
<glyph unicode="4" horiz-adv-x="1392" d="M59 248l1061 1335v-1102h207v-233h-207v-248h-278v248h-783zM553 481h289v357z" />
<glyph unicode="5" horiz-adv-x="1280" d="M119 502h270q2 -102 75 -173t175 -71q104 0 177 72.5t73 177t-73 178.5t-177 74q-131 0 -205 -111l-254 94l86 834h856v-266h-620l-33 -312q86 29 170 29q213 0 369 -151q152 -152 151.5 -368t-151.5 -370q-154 -154 -369 -153.5t-369 153.5q-147 145 -151 363z" />
<glyph unicode="6" horiz-adv-x="1216" d="M70.5 459.5q-17.5 187.5 87.5 339.5l544 792l216 -145l-285 -420q188 -12 325 -149q154 -152 154 -369t-154 -369q-152 -154 -368 -153q-215 0 -369 153q-133 133 -150.5 320.5zM350 508q0 -100 71 -170t169 -70q100 0 169.5 70t69.5 170t-69.5 170t-169.5 70 q-98 0 -169 -70t-71 -170z" />
<glyph unicode="7" horiz-adv-x="1280" d="M111 1307v272h1097l-770 -1597l-243 131l577 1194h-661z" />
<glyph unicode="8" horiz-adv-x="1198" d="M82 507q0 216 154 367q12 14 40 39q-96 123 -86.5 285t121.5 275q125 125 301 124.5t299 -124.5q117 -117 125 -281t-96 -289q21 -17 33 -29q152 -152 151.5 -367.5t-151.5 -369.5q-156 -152 -369 -151q-217 0 -368 151q-154 154 -154 370zM365 506q0 -98 69.5 -169 t170 -71t170 71t69.5 169q0 100 -69.5 169.5t-170 69.5t-170 -69.5t-69.5 -169.5zM469 1173.5q0 -59.5 42 -101.5t101.5 -42t100.5 42t41 101.5t-41 100.5t-100.5 41t-101.5 -41t-42 -100.5z" />
<glyph unicode="9" horiz-adv-x="1280" d="M114.5 1069q0.5 217 153.5 369q150 154 369 153q215 0 369 -153q133 -133 150.5 -320.5t-87.5 -339.5l-545 -792l-215 145l285 420q-189 12 -326 149q-154 152 -153.5 369zM397 1069q0 -100 70 -170t170 -70q98 0 169 70t71 170t-71 170t-169 70q-100 0 -170 -70 t-70 -170z" />
<glyph unicode=":" d="M147 157.5q0 71.5 51.5 122t121 50.5t121 -50.5t51.5 -122t-51.5 -121.5t-121 -50t-121 50t-51.5 121.5zM147 794.5q0 69.5 51.5 121t121 51.5t121 -51.5t51.5 -121t-51.5 -120.5t-121 -51t-121 51t-51.5 120.5z" />
<glyph unicode=";" d="M147 155.5q0 69.5 51.5 121t121 51.5t119.5 -51.5t50 -120.5q0 -125 -83.5 -219.5t-208.5 -110.5v41q53 6 95 40t58 83q-20 -4 -31 -4q-70 0 -121 50t-51 119.5zM147 790.5q0 69.5 51.5 121t121 51.5t121 -51.5t51.5 -121t-51.5 -121t-121 -51.5t-121 51.5t-51.5 121z " />
<glyph unicode="&#x3c;" horiz-adv-x="1705" d="M264 494v233l1178 487v-253l-854 -351l854 -348v-254z" />
<glyph unicode="=" horiz-adv-x="1705" d="M254 272v230h1198v-230h-1198zM254 719v231h1198v-231h-1198z" />
<glyph unicode="&#x3e;" horiz-adv-x="1705" d="M264 8v254l854 348l-854 351v253l1178 -487v-233z" />
<glyph unicode="?" horiz-adv-x="1257" d="M236 1255q20 145 129.5 240.5t255.5 95.5q176 -4 290 -118q102 -102 102.5 -250t-89.5 -244q-45 -59 -191.5 -126t-161.5 -77q-35 -18 -22.5 -58t49.5 -44q23 -4 44.5 11t23.5 40l270 -37q-16 -125 -110.5 -206t-219.5 -81q-29 0 -45 2q-125 16 -206 110.5t-81 219.5 q0 31 2 45q16 111 91 183q51 49 137 90q186 84 203 98q57 47 23 113.5t-109 56.5q-43 0 -76 -28.5t-39 -71.5zM434 157.5q0 71.5 51.5 122t121 50.5t120.5 -50.5t51 -122t-51 -121.5t-120.5 -50t-121 50t-51.5 121.5z" />
<glyph unicode="@" horiz-adv-x="2048" d="M90 395q0 342 209 598q303 373 827 373q352 0 580 -178q270 -213 270 -549q0 -342 -256 -547q-143 -115 -329 -115q-162 0 -207 72q-102 -70 -223 -63q-14 0 -35 4q-158 23 -256.5 152.5t-87.5 293.5q0 14 4 43q25 168 147.5 276.5t282.5 102.5q6 -2 18.5 -2t18.5 -2 q137 -20 225 -125l12 80h176l-84 -553q-4 -25 -4 -49q0 -59 56 -60q135 0 236.5 147.5t101.5 342.5q0 238 -178.5 389.5t-469.5 151.5q-293 0 -503 -146q-156 -111 -240 -274.5t-84 -356.5q0 -303 202.5 -482t544.5 -179q336 0 596 186l97 -135q-309 -233 -693 -233 q-389 0 -643 194q-311 242 -311 643zM762 426q-6 -100 49 -175t139 -85q7 -2 19 -2q86 -6 157.5 57.5t85.5 167.5q18 106 -39 192.5t-147 96.5q-2 0 -8 1t-10 1h-2q-86 4 -157 -59.5t-85 -167.5q-2 -8 -2 -27z" />
<glyph unicode="A" horiz-adv-x="1660" d="M41 0l647 1577h281l651 -1577h-307l-111 264h-743l-107 -264h-311zM571 545h516l-260 622z" />
<glyph unicode="B" horiz-adv-x="1413" d="M143 0v1577h551q180 0 307 -127t127 -307q0 -135 -79 -252q102 -66 161.5 -173.5t59.5 -232.5q0 -201 -142.5 -343t-343.5 -144zM432 268h352q88 0 151.5 63.5t63.5 153.5q0 88 -62.5 151.5t-152.5 65.5h-352v-434zM432 977h262q68 0 117 48t49 117.5t-49 118t-117 48.5 h-262v-332z" />
<glyph unicode="C" horiz-adv-x="1656" d="M143 789q0 332 234 567q239 235 566 235h3q328 0 567 -235l-202 -203q-152 150 -365 150q-217 0 -366 -150q-150 -152 -150 -366t150 -365q152 -152 366 -152q213 0 365 152l202 -203q-236 -233 -567 -233q-334 0 -569 233q-234 237 -234 570z" />
<glyph unicode="D" horiz-adv-x="1566" d="M143 0v1577h492q328 -2 558 -231t230 -555q0 -328 -230 -558.5t-558 -232.5h-492zM430 279h209q215 0 365.5 148.5t150.5 363.5q0 213 -150.5 358t-365.5 147h-209v-1017z" />
<glyph unicode="E" horiz-adv-x="1273" d="M143 0v1577h987v-279h-702v-387h608v-280h-608v-350h702v-281h-987z" />
<glyph unicode="F" horiz-adv-x="1200" d="M143 0v1577h985v-281h-700v-389h608v-280h-608v-627h-285z" />
<glyph unicode="G" horiz-adv-x="1792" d="M143 787.5q0 332.5 236 568.5q239 235 566 235h3q332 0 568 -235l-203 -203q-150 150 -365 150t-364 -150q-152 -152 -152 -366t151.5 -365.5t364.5 -151.5t365 152q14 16 49 59v160h-418v270h418h80h207v-516h-2v-2q-51 -92 -131 -174q-233 -233 -567.5 -233t-569.5 233 q-236 236 -236 568.5z" />
<glyph unicode="H" horiz-adv-x="1656" d="M143 0v1577h287v-668h799v668h284v-1577h-284v631h-799v-631h-287z" />
<glyph unicode="I" horiz-adv-x="694" d="M205 0v1577h284v-1577h-284z" />
<glyph unicode="J" horiz-adv-x="1058" d="M41 358l268 50q10 -59 64.5 -102.5t130.5 -43.5q86 0 143 53q55 45 55 117v1145h275v-1145q0 -186 -141 -317q-137 -129 -328 -129h-12q-168 4 -297 108.5t-158 263.5z" />
<glyph unicode="K" horiz-adv-x="1409" d="M123 0v1577h285v-686l475 686h319l-526 -764l661 -813h-336l-593 727v-727h-285z" />
<glyph unicode="L" horiz-adv-x="1204" d="M143 0v1577h287v-1313h703v-264h-990z" />
<glyph unicode="M" horiz-adv-x="1947" d="M143 0v1577h293l539 -760l536 760h293v-1577h-284v1090l-545 -764l-545 770v-1096h-287z" />
<glyph unicode="N" horiz-adv-x="1662" d="M143 0v1577h306l784 -1088v1088h287v-1577h-295l-795 1106v-1106h-287z" />
<glyph unicode="O" horiz-adv-x="1822" d="M170 580q-28 103 -28 206.5t28 207.5q55 208 211 362q235 235 564 235h3q328 0 568 -235q236 -236 236 -568.5t-236 -568.5q-238 -233 -568 -233q-334 0 -567 233q-156 155 -211 361zM434 787q0 -212 152 -363q147 -150 362 -150q213 0 363 150q152 150 152 362.5 t-152 364.5q-153 149 -360 149h-3q-213 0 -362 -149q-152 -152 -152 -364z" />
<glyph unicode="P" horiz-adv-x="1300" d="M143 0v1577h617q182 0 315 -146.5t133 -335t-133 -335t-315 -146.5h-330v-614h-287zM430 895h330q74 0 127 60.5t53 140.5t-53 141t-127 61h-330v-403z" />
<glyph unicode="Q" horiz-adv-x="1843" d="M170 580q-28 103 -28 206.5t28 207.5q55 208 211 362q236 236 565.5 236t569.5 -236q227 -227 234 -548v-20q0 -308 -206 -536l205 -252h-334l-72 88q-180 -102 -397 -102q-332 0 -565 233q-156 154 -211 361zM434 787q0 -212 152 -363q147 -150 360 -150q113 0 209 45 l-272 334l202 164l275 -336q101 134 101 302q0 20 -1 41q-14 192 -149 327q-153 150 -364 150l-1 -1q-211 0 -360 -149q-152 -152 -152 -364z" />
<glyph unicode="R" horiz-adv-x="1421" d="M143 0v1577h617q182 0 315 -146.5t133 -334.5q0 -141 -80.5 -266.5t-207.5 -180.5l430 -649h-336l-408 614h-176v-614h-287zM430 895h330q74 0 127 60.5t53 140.5t-53 140t-127 60h-330v-401z" />
<glyph unicode="S" horiz-adv-x="1361" d="M143 238l205 204q84 -84 182 -126q94 -40 179 -40h8h8q96 0 152 48q47 41 57 93q2 9 2 18q0 46 -43 108q-33 45 -111 90q-33 20 -170 84.5t-213 118.5q-80 53 -136 149q-52 90 -52 187v14v8q0 87 41 166q43 82 113 133q127 98 313 98q264 0 452 -188l-204 -205 q-102 104 -248 105q-84 0 -139 -39q-39 -41 -39 -83v-7q4 -46 41 -78q35 -37 125 -84q23 -12 114.5 -54.5t159.5 -81t125 -92.5q152 -141 152 -345v-5v-9q0 -95 -41 -180q-43 -89 -117 -149q-140 -110 -338 -110h-4q-322 0 -574 252z" />
<glyph unicode="T" horiz-adv-x="1212" d="M143 1298v279h987v-279h-350v-1298h-284v1298h-353z" />
<glyph unicode="U" horiz-adv-x="1662" d="M143 674v903h285v-895q0 -168 118 -285.5t285 -117.5q166 0 284 117.5t118 285.5v895h287v-903q0 -285 -202 -486.5t-487 -201.5q-287 0 -487.5 201.5t-200.5 486.5z" />
<glyph unicode="V" horiz-adv-x="1638" d="M45 1577h309l467 -1124l461 1124h311l-649 -1577h-246z" />
<glyph unicode="W" horiz-adv-x="2252" d="M43 1577h311l312 -1126l305 1126h309l311 -1126l307 1126h310l-461 -1577h-309l-310 1053l-309 -1053h-309z" />
<glyph unicode="X" horiz-adv-x="1331" d="M49 1577h330l289 -502q41 72 141 243t149 259h326l-453 -786q74 -131 226.5 -396.5t226.5 -394.5h-321l-295 508q-66 -113 -293 -508h-324l455 791q-80 141 -236.5 408t-220.5 378z" />
<glyph unicode="Y" horiz-adv-x="1433" d="M68 1577h307l344 -582l340 582h309l-508 -922v-655h-287v668z" />
<glyph unicode="Z" horiz-adv-x="1228" d="M68 0l632 1303h-632v274h1095l-635 -1309h635v-268h-1095z" />
<glyph unicode="[" horiz-adv-x="743" d="M180 -285v1958h508v-241h-239v-1475h239v-242h-508z" />
<glyph unicode="\" horiz-adv-x="937" d="M-4 1583h223l723 -1583h-221z" />
<glyph unicode="]" horiz-adv-x="743" d="M180 -43h240v1475h-240v241h508v-1958h-508v242z" />
<glyph unicode="^" horiz-adv-x="2048" d="M414 899l465 563h288l465 -563h-264l-344 342l-346 -342h-264z" />
<glyph unicode="_" horiz-adv-x="1024" d="M0 -244h1024v-239h-1024v239z" />
<glyph unicode="`" horiz-adv-x="1040" d="M111 1620h280l182 -350h-153z" />
<glyph unicode="a" horiz-adv-x="1280" d="M106 506q0 217 150 369.5t365 152.5q74 0 137 -23.5t90 -46.5l29 -24v80h260v-1014h-260v80q-10 -10 -30 -25.5t-86.5 -42t-139.5 -26.5q-215 0 -365 152.5t-150 367.5zM369 505.5q0 -104.5 74.5 -181t177 -76.5t180.5 76.5t78 181t-78 182.5t-180.5 78t-177 -78 t-74.5 -182.5z" />
<glyph unicode="b" horiz-adv-x="1351" d="M186 0v1638h260v-702q10 10 30 25.5t87.5 42t141.5 26.5q215 0 364.5 -152.5t149.5 -369.5t-149.5 -369.5t-364.5 -152.5q-74 0 -138.5 23.5t-91.5 47.5l-29 23v-80h-260zM444 507.5q0 -104.5 79 -182t181.5 -77.5t177 77.5t74.5 182t-74.5 182.5t-177 78t-181.5 -78 t-79 -182.5z" />
<glyph unicode="c" horiz-adv-x="1071" d="M227 877q155 151 368 151h3q213 0 369 -151l-187 -187q-72 74 -182.5 74t-183.5 -74q-72 -72 -72 -183.5t72 -182.5q74 -74 185 -74t183 72q131 -131 185 -183q-153 -153 -366 -153h-3q-217 0 -371 153q-150 151 -150 367t150 371z" />
<glyph unicode="d" horiz-adv-x="1351" d="M152 508q0 217 149.5 369.5t364.5 152.5q74 0 138 -23.5t93 -48.5l27 -22v702h260v-1638h-260v80q-10 -10 -30 -25.5t-87.5 -42t-140.5 -26.5q-215 0 -364.5 152.5t-149.5 369.5zM414 507.5q0 -104.5 74.5 -182t177 -77.5t181.5 77.5t79 182t-79 182.5t-181.5 78 t-177 -78t-74.5 -182.5z" />
<glyph unicode="e" horiz-adv-x="1251" d="M260 877q155 152 368 151h1q213 0 368 -151q99 -101 135 -233q18 -69 18 -136q0 -63 -15 -127h-732q55 -111 191 -128q22 -3 42 -3q107 0 177 74l184 -185q-154 -154 -367 -154l-2 1q-214 0 -368 153q-152 152 -152 367q0 216 152 371zM393 614h471q-37 94 -136 132 q-50 19 -100 19q-48 0 -98 -18q-100 -37 -137 -133z" />
<glyph unicode="f" horiz-adv-x="1005" d="M33 754v258h225v196q0 178 126 304t304 126q184 0 311 -133l-186 -178q-53 53 -125 53t-122 -50t-50 -122v-196h223v-258h-223v-754h-258v754h-225z" />
<glyph unicode="g" horiz-adv-x="1351" d="M121 508q0 217 149.5 368.5t364.5 151.5q74 0 138.5 -23.5t90.5 -46.5l29 -24v80h262v-1022q0 -217 -153.5 -370.5t-368.5 -153.5t-369 153l185 184q92 -81 183 -81h15q98 8 172 87.5t74 180.5v88q-10 -10 -29.5 -25.5t-87 -42t-141.5 -26.5q-215 0 -364.5 152.5 t-149.5 369.5zM385 507.5q0 -104.5 74 -181t176 -76.5q104 0 182 76.5t78 181t-78 181.5t-182 77q-102 0 -176 -77t-74 -181.5z" />
<glyph unicode="h" horiz-adv-x="1261" d="M82 0v1638h264v-702q10 10 30.5 25.5t89.5 42t142 26.5q217 0 363.5 -153.5t146.5 -374.5v-502h-266v492q0 109 -70.5 191.5t-173.5 82.5q-106 0 -184 -79t-78 -185v-502h-264z" />
<glyph unicode="i" d="M143 1374.5q0 71.5 51.5 121.5t121 50t120.5 -50t51 -121.5t-51 -122t-120.5 -50.5t-121 50.5t-51.5 122zM184 0v1014h262v-1014h-262z" />
<glyph unicode="j" d="M143 1374.5q0 71.5 51.5 121.5t121 50t120.5 -50t51 -121.5t-51 -122t-120.5 -50.5t-121 50.5t-51.5 122zM184 -532v1546h262v-1546h-262z" />
<glyph unicode="k" horiz-adv-x="1312" d="M174 0v1638h268v-936l326 328h389l-467 -467l563 -563h-387l-424 426v-426h-268z" />
<glyph unicode="l" d="M188 0v1638h267v-1638h-267z" />
<glyph unicode="m" horiz-adv-x="1871" d="M162 0v1014h260v-82q41 41 109.5 68.5t127.5 27.5q168 0 310 -145q139 145 340 145q195 0 329 -139t134 -336v-553h-259v563q0 84 -60 144.5t-144 60.5q-86 0 -146.5 -60.5t-60.5 -144.5v-563h-258v553q0 84 -64.5 144.5t-150.5 60.5t-145.5 -59.5t-61.5 -145.5v-553 h-258h-2z" />
<glyph unicode="n" horiz-adv-x="1337" d="M195 0v1014h262v-80q43 43 105.5 68.5t117.5 25.5q205 0 326.5 -135t121.5 -338v-555h-260v563q0 86 -61.5 149.5t-145 63.5t-144 -62.5t-60.5 -148.5v-565h-260h-2z" />
<glyph unicode="o" horiz-adv-x="1275" d="M276 877q156 152 369 152t369 -152q154 -154 154 -369v-1q0 -216 -154 -368q-154 -154 -368 -154l-1 1q-215 0 -369 153q-152 152 -152 367q0 216 152 371zM387 508q0 -104 79 -183t181 -79q104 0 181 78.5t77 183.5q0 102 -76.5 180t-181.5 78q-102 0 -181 -78t-79 -180 z" />
<glyph unicode="p" horiz-adv-x="1351" d="M205 -532v1546h260v-80q10 10 30.5 25.5t88 42t141.5 26.5q215 0 364.5 -152.5t149.5 -369.5t-149.5 -368.5t-364.5 -151.5q-74 0 -139.5 23.5t-93.5 47.5l-27 23v-612h-260zM465 505.5q0 -104.5 78 -181t182 -76.5q102 0 176 76.5t74 181t-74 181.5t-176 77 q-104 0 -182 -77t-78 -181.5z" />
<glyph unicode="q" horiz-adv-x="1351" d="M168 506q0 217 149.5 369.5t364.5 152.5q74 0 139.5 -23.5t91.5 -46.5l29 -24v80h260v-1546h-260v612q-10 -10 -30.5 -25.5t-88 -42t-141.5 -26.5q-215 0 -364.5 151.5t-149.5 368.5zM432 505.5q0 -104.5 74 -181t176 -76.5q104 0 182 76.5t78 181t-78 181.5t-182 77 q-102 0 -176 -77t-74 -181.5z" />
<glyph unicode="r" horiz-adv-x="915" d="M172 0v1012h264v-99q29 55 86.5 85t116.5 30q113 0 219 -53l-100 -252q-59 35 -119 35q-84 0 -143.5 -60.5t-59.5 -144.5v-553h-264z" />
<glyph unicode="s" horiz-adv-x="991" d="M98 170l211 156q27 -36 83 -60q52 -23 102 -22h8q53 0 78.5 22.5t18.5 50t-38 41.5q-23 10 -93.5 36t-113.5 44q-41 20 -60.5 30.5t-51 38.5t-52.5 62q-37 61 -36 144v8q0 68 32 129q34 65 86 104q96 74 234 74q188 0 321 -131l-188 -180q-49 53 -133 53 q-51 0 -75.5 -22.5t-15.5 -49t44 -39.5q14 -4 61 -18t75 -23.5t71 -31t79 -47.5q55 -39 90 -103q33 -60 33 -129v-8v-8q0 -71 -34 -133q-36 -66 -93 -105q-97 -67 -235 -67h-4q-254 0 -404 184z" />
<glyph unicode="t" horiz-adv-x="823" d="M102 756v256h179v368h262v-368h178v-256h-178v-756h-262v756h-179z" />
<glyph unicode="u" horiz-adv-x="1292" d="M174 461v553h260v-553q0 -84 64.5 -148.5t150.5 -64.5q84 0 149.5 64.5t65.5 148.5v553h258v-553q0 -197 -139 -336t-334 -139q-197 0 -336 139t-139 336z" />
<glyph unicode="v" horiz-adv-x="1003" d="M-18 1014h284l244 -572l240 572h284l-416 -1014h-217z" />
<glyph unicode="w" horiz-adv-x="1644" d="M-37 1014h287l242 -574l178 574h319l178 -574l244 574h285l-420 -1014h-215l-232 635l-231 -635h-215z" />
<glyph unicode="x" horiz-adv-x="940" d="M-43 1012h315l197 -271l195 271h317l-358 -510l358 -502h-326l-186 262l-188 -262h-322l356 502z" />
<glyph unicode="y" horiz-adv-x="1089" d="M-29 1014h287l293 -723l274 723h285l-623 -1546h-290l211 518z" />
<glyph unicode="z" horiz-adv-x="940" d="M0 764v250h911l-428 -774h420v-240h-885l457 764h-475z" />
<glyph unicode="{" horiz-adv-x="1024" d="M184 469v289q66 0 113 47t47 113v227q0 195 85 364.5t235 284.5l176 -229q-96 -76 -151.5 -184.5t-55.5 -235.5v-227q0 -174 -119 -304q119 -131 119 -305v-229q0 -256 205 -418l-176 -229q-147 115 -232.5 284.5t-85.5 362.5v229q0 66 -47 113t-113 47z" />
<glyph unicode="|" horiz-adv-x="1024" d="M393 -483v2048h240v-2048h-240z" />
<glyph unicode="}" horiz-adv-x="1024" d="M184 -336q96 76 151.5 184.5t55.5 235.5v227q0 174 119 303q-119 131 -119 306v229q0 256 -205 418l176 229q147 -115 232.5 -284.5t85.5 -362.5v-229q0 -66 47 -113t113 -47v-289q-66 0 -113 -47t-47 -113v-227q0 -195 -85 -365t-235 -284z" />
<glyph unicode="~" horiz-adv-x="1705" d="M178 401v254q221 143 387 144q119 0 295 -58q16 -6 56 -20t62.5 -20.5t56.5 -15.5t63.5 -13t60.5 -4q162 -1 371 151v-254q-199 -137 -377 -137q-92 0 -172 29q-10 4 -48 17t-49.5 16.5t-45 14.5t-48 15t-44 12.5t-48 11.5t-44 8t-48 6t-45.5 1q-162 0 -383 -158z" />
<glyph unicode="&#xa1;" horiz-adv-x="702" d="M174 1450q0 70 50 121t122 51t122 -51t50 -121t-50 -121t-122 -51t-122 51t-50 121zM211 -14h270v1134h-270v-1134z" />
<glyph unicode="&#xa2;" horiz-adv-x="1280" d="M204.5 720q0.5 216 151.5 370q133 133 328 149v195h94v-195q184 -20 318 -149l-187 -187q-72 74 -182.5 74t-183.5 -74q-72 -72 -72 -183.5t72 -182.5q74 -74 185 -74t183 72q131 -131 185 -183q-135 -131 -318 -151v-215h-94v215q-197 16 -328 151q-152 152 -151.5 368z " />
<glyph unicode="&#xa3;" horiz-adv-x="1497" d="M143 170q23 25 97.5 88.5t128 112.5t89.5 115.5t13 117.5l-278 -2l-3 123l209 2q-39 61 -59.5 97t-45 109t-26.5 144q0 221 156 362.5t377 141.5q164 2 298 -87t197 -232l-256 -113q-31 70 -95 112t-142 42q-111 0 -181.5 -59.5t-70.5 -164.5q-2 -43 28.5 -104.5t78 -134 t63.5 -111.5l313 2v-123l-272 -2q23 -147 -37 -270q12 -4 57 -21.5t72 -25.5t59.5 -16.5t51.5 -6.5q84 1 190 105l199 -195q-184 -190 -387 -190q-94 0 -262 59q-117 45 -166 39q-90 -4 -195 -111z" />
<glyph unicode="&#xa4;" horiz-adv-x="1241" d="M61 444l201 203q-72 106 -72 238q0 135 72 237l-201 205l117 117l203 -201q106 74 240 74q139 0 243 -74l201 201l119 -117l-201 -205q70 -106 70 -237t-70 -238l201 -203l-119 -118l-201 202q-102 -74 -241 -73q-135 0 -242 73l-203 -202zM362 885q0 -109 76 -184.5 t185 -75.5q106 0 183 76.5t77 183t-77 183.5t-183.5 77t-183.5 -77t-77 -183z" />
<glyph unicode="&#xa5;" horiz-adv-x="1335" d="M16 1579h308l344 -584l340 584h309l-250 -455h199v-231h-326l-119 -217h445v-230h-457v-446h-287v446h-454v230h450l-121 217h-329v231h200z" />
<glyph unicode="&#xa6;" horiz-adv-x="1024" d="M393 -350v758h240v-758h-240zM393 674v758h240v-758h-240z" />
<glyph unicode="&#xa7;" horiz-adv-x="1218" d="M184 548.5q0 147.5 103 250.5q12 12 20 18q-66 72 -80 170q-2 14 -2 45q0 125 81 219.5t206 110.5q16 2 45 2q125 0 219 -81t111 -206l-271 -37q-2 25 -23.5 40.5t-43.5 11.5q-37 -4 -49.5 -44t22.5 -59q14 -10 160.5 -76.5t191.5 -126.5q90 -96 90.5 -243.5 t-102.5 -249.5q-12 -13 -20 -19q63 -68 80 -170q2 -14 2 -45q0 -125 -81 -219t-206 -110q-16 -2 -45 -2q-125 0 -219 80.5t-111 205.5l270 37q2 -25 24 -40t44 -11q37 4 49.5 44t-22.5 58q-14 10 -161 77t-192 126q-90 96 -90 243.5zM457 549q0 -49 34.5 -84t83.5 -35 q47 0 82 35t35 84t-34.5 83t-82.5 34q-49 0 -83.5 -34t-34.5 -83z" />
<glyph unicode="&#xa8;" horiz-adv-x="1024" d="M172 1333q0 55 44 98.5t101 43.5q59 0 100.5 -41t41.5 -101q0 -63 -40 -104t-102 -41q-59 0 -102 43t-43 102zM563 1333q0 55 43 98.5t101 43.5q59 0 101 -41t42 -101q0 -63 -41 -104t-102 -41q-59 0 -101.5 43t-42.5 102z" />
<glyph unicode="&#xa9;" horiz-adv-x="1705" d="M106 737q0 305 222 531q213 217 524 217q313 0 532 -219q215 -215 215 -529q0 -315 -213 -524q-227 -223 -534 -223q-305 0 -526 221q-219 219 -220 526zM242 737q0 -248 182 -430q180 -180 430 -180t436 182q174 170 174 428q0 256 -176 432q-180 181 -434 181 q-256 0 -430 -179q-182 -186 -182 -434zM504 734q0 151 104 257q109 104 258.5 104.5t253.5 -104.5l-90 -92q-66 68 -164 68q-100 0 -166 -68q-68 -68 -67.5 -164t67.5 -166q68 -68 166 -67q96 -1 164 67l90 -90q-104 -106 -254 -106q-152 0 -258 106q-104 104 -104 255z " />
<glyph unicode="&#xaa;" horiz-adv-x="1013" />
<glyph unicode="&#xab;" horiz-adv-x="1114" d="M45 502l358 489l193 -133l-264 -356l264 -348l-193 -140zM518 502l361 489l190 -133l-262 -356l262 -348l-190 -140z" />
<glyph unicode="&#xac;" horiz-adv-x="1705" d="M254 639v227h1198v-501h-229v274h-969z" />
<glyph unicode="&#xad;" horiz-adv-x="933" d="M176 494v235h578v-235h-578z" />
<glyph unicode="&#xae;" horiz-adv-x="1705" d="M106 737q0 313 228 537q215 211 518 211q319 0 539 -225q209 -213 208 -523q0 -319 -221 -530q-227 -217 -526 -217q-309 0 -530 227q-215 221 -216 520zM244 737q0 -246 174 -424q180 -186 434 -186q250 0 432 176q180 174 180 434q0 252 -172 428q-180 185 -438 185 q-250 0 -426 -172q-184 -184 -184 -441zM639 420v672h264q78 0 134.5 -62.5t56.5 -142.5q0 -59 -35 -113.5t-88 -77.5l182 -276h-143l-174 260h-74v-260h-123zM762 801h141q31 0 53.5 26.5t22.5 59.5q0 35 -22.5 59.5t-53.5 24.5h-141v-170z" />
<glyph unicode="&#xaf;" horiz-adv-x="1024" d="M205 1247v168h614v-168h-614z" />
<glyph unicode="&#xb0;" horiz-adv-x="673" d="M27 1266q0 131 91 221t220 90t220 -91t91 -220q0 -127 -91 -219.5t-222 -92.5q-129 0 -219 90.5t-90 221.5zM172 1268q0 -70 48 -118t118 -48q68 0 116 49t48 116.5t-47 116t-117 48.5q-68 0 -117 -48.5t-49 -115.5z" />
<glyph unicode="&#xb1;" horiz-adv-x="1705" d="M254 -18v231h1198v-231h-1198zM254 690v232h481v319h238v-319h479v-232h-479v-319h-238v319h-481z" />
<glyph unicode="&#xb2;" horiz-adv-x="845" d="M49 1163q0 117 83 200t202 83t203 -83t84 -202q0 -98 -60 -174l-215 -278h293v-138h-588l391 508q29 39 29 82q0 57 -40 96t-97 39q-55 0 -95 -38.5t-42 -94.5h-148z" />
<glyph unicode="&#xb3;" horiz-adv-x="845" d="M51 858h150q2 -55 42 -94t95 -39q57 0 97 40t40 97.5t-40 97t-97 39.5t-96 -38l-107 104l238 238h-289v147h502v-147h-2l2 -3l-166 -161q70 -25 121 -74q84 -84 84 -203t-84 -203t-203 -84t-203 84q-80 80 -84 199z" />
<glyph unicode="&#xb4;" horiz-adv-x="1112" d="M399 1270l183 350h280l-309 -350h-154z" />
<glyph unicode="&#xb5;" horiz-adv-x="1314" />
<glyph unicode="&#xb6;" horiz-adv-x="1024" d="M29 1130q0 156 105.5 252.5t283.5 96.5h579v-123h-106v-1356h-174v1356h-152v-1356h-174v784q-166 6 -264 101.5t-98 244.5z" />
<glyph unicode="&#xb7;" d="M119 721q0 84 57 142.5t143 58.5q84 0 143.5 -58.5t59.5 -142.5q0 -86 -59.5 -144.5t-143 -58.5t-142 59.5t-58.5 143.5z" />
<glyph unicode="&#xb8;" horiz-adv-x="1024" d="M430 -295h109q0 -41 28.5 -68.5t69.5 -27.5q43 0 72.5 28.5t29.5 69.5t-29.5 70.5t-72.5 29.5q-51 0 -82 -43l-104 35l79 201h132l-37 -84h12q88 0 149 -61q59 -61 59.5 -147.5t-59.5 -147.5q-61 -61 -149 -62q-86 0 -148 62q-55 59 -59 145z" />
<glyph unicode="&#xb9;" horiz-adv-x="845" d="M102 600v135h168v484l-168 -84v149l322 164v-713h168v-135h-490z" />
<glyph unicode="&#xba;" horiz-adv-x="956" d="M86 1092.5q0 162.5 114.5 277.5t276.5 115t276.5 -115t114.5 -277.5t-114 -275.5q-113 -115 -277 -115t-276 115q-115 113 -115 275.5zM332 1093.5q0 -59.5 44 -103.5t103 -44q57 0 100.5 44t43.5 103.5t-43 102.5t-101 43q-59 0 -103 -43t-44 -102.5z" />
<glyph unicode="&#xbb;" horiz-adv-x="1114" d="M45 154l262 348l-262 356l191 133l358 -489l-358 -488zM518 154l262 348l-262 356l191 133l360 -489l-360 -488z" />
<glyph unicode="&#xbc;" horiz-adv-x="2029" d="M143 600v135h168v484l-168 -84v149l322 164v-713h168v-135h-490zM449 0l1134 1479h189l-1139 -1479h-184zM1188 168h432v-137h152v137h114v127h-114v606zM1460 295l160 197v-197h-160z" />
<glyph unicode="&#xbd;" horiz-adv-x="2062" d="M143 600v135h168v484l-168 -84v149l322 164v-713h168v-135h-490zM373 0l1134 1479h189l-1139 -1479h-184zM1329 623q0 117 83 199.5t202 82.5t203 -83t84 -201q0 -98 -60 -175l-215 -278h293v-137h-588l391 508q29 39 29 82q0 57 -40 96t-97 39q-55 0 -95 -39t-42 -94 h-148z" />
<glyph unicode="&#xbe;" horiz-adv-x="2080" d="M143 856q4 -117 87 -200t200 -83q119 0 203 84t84 203q0 92 -55.5 169t-149.5 108l166 161v2v148h-502v-148h289l-238 -237l107 -105q39 39 96 39t97 -39.5t40 -97t-40 -97.5t-97 -40q-55 0 -95 39t-42 94h-150zM500 0l1134 1479h189l-1139 -1479h-184zM1239 168h432 v-137h152v137h114v127h-114v606zM1511 295l160 197v-197h-160z" />
<glyph unicode="&#xbf;" horiz-adv-x="1239" d="M236 354q0 148 90 244q45 59 191.5 126t160.5 77q35 18 22.5 58t-49.5 44q-23 4 -44 -11t-23 -40l-271 37q16 125 110.5 206t219.5 81q29 0 45 -2q125 -16 206 -110.5t81 -219.5q0 -31 -2 -45q-16 -111 -90 -183q-51 -49 -138 -90q-186 -84 -202 -98 q-57 -47 -23.5 -113.5t109.5 -56.5q43 0 75.5 28.5t38.5 71.5l271 -36q-20 -145 -130 -240.5t-255 -95.5q-176 4 -291 118q-102 102 -102 250zM471 1419.5q0 71.5 51 121.5t121 50t121 -50t51 -121.5t-51 -122t-121 -50.5t-121 50.5t-51 122z" />
<glyph unicode="&#xc0;" horiz-adv-x="1660" d="M41 0h311l107 264h743l111 -264h307l-651 1577h-281zM377 2093h280l183 -350h-154zM571 545l256 622l260 -622h-516z" />
<glyph unicode="&#xc1;" horiz-adv-x="1660" d="M41 0l647 1577h281l651 -1577h-307l-111 264h-743l-107 -264h-311zM571 545h516l-260 622zM665 1743l183 350h280l-309 -350h-154z" />
<glyph unicode="&#xc2;" horiz-adv-x="1660" d="M41 0h311l107 264h743l111 -264h307l-651 1577h-281zM457 1706l182 350h276l183 -350h-154l-166 180l-168 -180h-153zM571 545l256 622l260 -622h-516z" />
<glyph unicode="&#xc3;" horiz-adv-x="1660" d="M41 0l647 1577h281l651 -1577h-307l-111 264h-743l-107 -264h-311zM446 1665q55 246 215 246q31 0 90 -17l95 -26q25 -8 57 -9q68 0 88 87h119q-31 -131 -83 -192.5t-136 -61.5q-43 0 -76 10l-92 26q-53 14 -68 15q-63 0 -90 -78h-119zM571 545h516l-260 622z" />
<glyph unicode="&#xc4;" horiz-adv-x="1660" d="M41 0l647 1577h281l651 -1577h-307l-111 264h-743l-107 -264h-311zM487 1806q0 55 44 98.5t101 43.5q59 0 100.5 -41t41.5 -101q0 -63 -40 -104t-102 -41q-59 0 -102 43t-43 102zM571 545h516l-260 622zM878 1806q0 55 43 98.5t101 43.5q59 0 101 -41t42 -101 q0 -63 -41 -104t-102 -41q-59 0 -101.5 43t-42.5 102z" />
<glyph unicode="&#xc5;" horiz-adv-x="1660" d="M41 0l610 1487q-88 78 -88 203q0 113 79 192.5t191.5 79.5t192.5 -80t80 -192q0 -127 -98 -209l612 -1481h-307l-111 264h-743l-107 -264h-311zM571 545h516l-260 622zM719 1690q0 -41 25.5 -73t66.5 -40h43q41 8 67.5 40t26.5 73q0 47 -33.5 80.5t-81 33.5t-81 -33.5 t-33.5 -80.5z" />
<glyph unicode="&#xc6;" horiz-adv-x="1918" d="M31 0l800 1577h1047v-281h-623v-387h531v-280h-531v-350h623v-279h-907v262h-488l-141 -262h-311zM633 543h338v620z" />
<glyph unicode="&#xc7;" horiz-adv-x="1656" d="M143.5 787.5q-0.5 332.5 233.5 568.5q240 236 569 235q328 0 567 -235l-202 -203q-152 150 -365 150q-217 0 -366 -150q-150 -152 -150 -366t150 -365q152 -152 366 -152q213 0 365 152l202 -203q-236 -233 -567 -233q-334 0 -569 233q-233 236 -233.5 568.5zM768 -295 h109q0 -41 28.5 -68.5t69.5 -27.5q43 0 72.5 28.5t29.5 69.5t-29.5 70.5t-72.5 29.5q-51 0 -82 -43l-104 35l79 201h132l-37 -84h12q88 0 149 -61q59 -61 59.5 -147.5t-59.5 -147.5q-61 -61 -149 -62q-86 0 -148 62q-55 59 -59 145z" />
<glyph unicode="&#xc8;" horiz-adv-x="1273" d="M143 0h987v281h-702v350h608v280h-608v387h702v279h-987v-1577zM223 2093h281l182 -350h-154z" />
<glyph unicode="&#xc9;" horiz-adv-x="1273" d="M143 0v1577h987v-279h-702v-387h608v-280h-608v-350h702v-281h-987zM512 1743l183 350h280l-309 -350h-154z" />
<glyph unicode="&#xca;" horiz-adv-x="1273" d="M143 0h987v281h-702v350h608v280h-608v387h702v279h-987v-1577zM303 1706l182 350h277l182 -350h-153l-166 180l-168 -180h-154z" />
<glyph unicode="&#xcb;" horiz-adv-x="1273" d="M143 0v1577h987v-279h-702v-387h608v-280h-608v-350h702v-281h-987zM285 1806q0 55 44 98.5t101 43.5q59 0 100.5 -41t41.5 -101q0 -63 -40 -104t-102 -41q-59 0 -102 43t-43 102zM676 1806q0 55 43 98.5t101 43.5q59 0 101 -41t42 -101q0 -63 -41 -104t-102 -41 q-59 0 -101.5 43t-42.5 102z" />
<glyph unicode="&#xcc;" horiz-adv-x="694" d="M0 2093h281l182 -350h-154zM205 0h284v1577h-284v-1577z" />
<glyph unicode="&#xcd;" horiz-adv-x="718" d="M205 0v1577h284v-1577h-284zM256 1743l182 350h281l-309 -350h-154z" />
<glyph unicode="&#xce;" horiz-adv-x="702" d="M31 1706l182 350h276l183 -350h-154l-166 180l-168 -180h-153zM203 0h284v1577h-284v-1577z" />
<glyph unicode="&#xcf;" horiz-adv-x="718" d="M20 1806q0 55 44.5 98.5t101.5 43.5q59 0 100 -41t41 -101q0 -63 -40 -104t-101 -41q-59 0 -102.5 43t-43.5 102zM213 0h285v1577h-285v-1577zM412 1806q0 55 43 98.5t100 43.5q59 0 101 -41t42 -101q0 -63 -41 -104t-102 -41q-59 0 -101 43t-42 102z" />
<glyph unicode="&#xd0;" horiz-adv-x="1591" />
<glyph unicode="&#xd1;" horiz-adv-x="1703" d="M164 0h287v1106l794 -1106h295v1577h-287v-1088l-784 1088h-305v-1577zM553 1665q55 246 215 246q31 0 90 -17l94 -26q25 -8 58 -8q68 0 88 86h119q-31 -131 -83.5 -192.5t-136.5 -61.5q-43 0 -75 10l-93 27q-53 14 -67 14q-63 0 -90 -78h-119z" />
<glyph unicode="&#xd2;" horiz-adv-x="1935" d="M190 995q-55 -207 0.5 -414.5t210.5 -361.5q233 -233 568 -233q329 0 567 233q236 236 236 568.5t-236 568.5q-240 236 -567 235q-332 0 -568 -235q-156 -154 -211 -361zM454.5 787.5q0.5 211.5 151.5 363.5q150 150 363 149q208 1 362 -149q152 -152 152 -365t-152 -362 q-150 -150 -362 -150q-215 0 -363 150q-152 152 -151.5 363.5zM557 2093h281l182 -350h-154z" />
<glyph unicode="&#xd3;" horiz-adv-x="1935" d="M190 579.5q-55 206.5 0.5 414.5t210.5 362q236 236 568 235q328 0 567 -235q236 -236 236 -568.5t-236 -568.5q-238 -233 -567 -233q-334 0 -568 233q-156 154 -211 360.5zM454.5 787q0.5 -212 151.5 -363q147 -150 363 -150q213 0 362 150q152 150 152 362.5t-152 364.5 q-154 150 -362 149q-213 0 -363 -149q-152 -152 -151.5 -364zM846 1743l182 350h281l-310 -350h-153z" />
<glyph unicode="&#xd4;" horiz-adv-x="1935" d="M190 995q-55 -207 0.5 -414.5t210.5 -361.5q233 -233 568 -233q329 0 567 233q236 236 236 568.5t-236 568.5q-240 236 -567 235q-332 0 -568 -235q-156 -154 -211 -361zM454.5 787.5q0.5 211.5 151.5 363.5q150 150 363 149q208 1 362 -149q152 -152 152 -365t-152 -362 q-150 -150 -362 -150q-215 0 -363 150q-152 152 -151.5 363.5zM637 1706l182 350h277l182 -350h-154l-166 180l-167 -180h-154z" />
<glyph unicode="&#xd5;" horiz-adv-x="1935" d="M190 995q-55 -207 0.5 -414.5t210.5 -361.5q233 -233 568 -233q329 0 567 233q236 236 236 568.5t-236 568.5q-240 236 -567 235q-332 0 -568 -235q-156 -154 -211 -361zM454.5 787.5q0.5 211.5 151.5 363.5q150 150 363 149q208 1 362 -149q152 -152 152 -365t-152 -362 q-150 -150 -362 -150q-215 0 -363 150q-152 152 -151.5 363.5zM627 1665q55 246 215 246q31 0 90 -17l94 -26q25 -8 57 -8q68 0 88 86h119q-31 -131 -83 -192.5t-136 -61.5q-43 0 -76 10l-92 27q-53 14 -67 14q-63 0 -91 -78h-118z" />
<glyph unicode="&#xd6;" horiz-adv-x="1894" d="M170 580.5q55 -207.5 211 -361.5q233 -233 567 -233q330 0 568 233q236 236 235.5 568.5t-235.5 568.5q-240 236 -568 235q-332 0 -567 -235q-156 -154 -211 -361t0 -414.5zM434 787.5q0 211.5 152 363.5q150 150 362 149q209 1 363 -149q152 -152 151.5 -365 t-151.5 -362q-150 -150 -363 -150q-215 0 -362 150q-152 152 -152 363.5zM598 1806q0 55 44 98.5t101 43.5q59 0 100.5 -41t41.5 -101q0 -63 -40 -104t-102 -41q-59 0 -102 43t-43 102zM989 1806q0 55 43 98.5t101 43.5q59 0 101 -41t42 -101q0 -63 -41 -104t-102 -41 q-59 0 -101.5 43t-42.5 102z" />
<glyph unicode="&#xd7;" horiz-adv-x="1705" d="M268 170l441 440l-441 443l162 161l440 -440l441 440l162 -161l-441 -443l441 -440l-162 -162l-441 441l-440 -441z" />
<glyph unicode="&#xd8;" horiz-adv-x="1970" d="M143 41l211 217q-209 236 -199.5 555.5t236.5 544.5q236 236 567 235q285 0 510 -182l138 141h221l-246 -254q195 -236 180.5 -547t-233.5 -530q-236 -236 -570 -235q-274 0 -487 164l-104 -109h-224zM438.5 815q-10.5 -199 114.5 -350l717 739q-139 104 -312 105 q-214 0 -366 -152q-143 -143 -153.5 -342zM672 354q125 -84 286 -84q217 0 369 152q135 135 150.5 326.5t-95.5 343.5z" />
<glyph unicode="&#xd9;" horiz-adv-x="1662" d="M143 674v903h285v-895q0 -168 118 -285.5t285 -117.5q166 0 284 117.5t118 285.5v895h287v-903q0 -285 -202 -486.5t-487 -201.5q-287 0 -487.5 201.5t-200.5 486.5zM401 2093h281l182 -350h-153z" />
<glyph unicode="&#xda;" horiz-adv-x="1662" d="M143 674v903h285v-895q0 -168 118 -285.5t285 -117.5q166 0 284 117.5t118 285.5v895h287v-903q0 -285 -202 -486.5t-487 -201.5q-287 0 -487.5 201.5t-200.5 486.5zM690 1743l183 350h280l-309 -350h-154z" />
<glyph unicode="&#xdb;" horiz-adv-x="1662" d="M143 674v903h285v-895q0 -168 118 -285.5t285 -117.5q166 0 284 117.5t118 285.5v895h287v-903q0 -285 -202 -486.5t-487 -201.5q-287 0 -487.5 201.5t-200.5 486.5zM481 1706l183 350h276l182 -350h-153l-166 180l-168 -180h-154z" />
<glyph unicode="&#xdc;" horiz-adv-x="1662" d="M143 674v903h285v-895q0 -168 118 -285.5t285 -117.5q166 0 284 117.5t118 285.5v895h287v-903q0 -285 -202 -486.5t-487 -201.5q-287 0 -487.5 201.5t-200.5 486.5zM491 1806q0 55 44 98.5t101 43.5q59 0 100.5 -41t41.5 -101q0 -63 -40 -104t-102 -41q-59 0 -102 43 t-43 102zM882 1806q0 55 43 98.5t101 43.5q59 0 101 -41t42 -101q0 -63 -41 -104t-102 -41q-59 0 -101.5 43t-42.5 102z" />
<glyph unicode="&#xdd;" horiz-adv-x="1587" d="M143 1577h308l344 -582l340 582h309l-508 -922v-655h-287v668zM684 1743l182 350h281l-309 -350h-154z" />
<glyph unicode="&#xde;" horiz-adv-x="1298" />
<glyph unicode="&#xdf;" horiz-adv-x="1435" d="M129 651v273h166v217q0 180 127 307t307 127t307 -127t127 -307q0 -135 -80 -252q102 -66 162 -173.5t60 -232.5q0 -199 -142.5 -340t-343.5 -143h-90v268h90q88 0 151.5 63.5t63.5 151.5t-62.5 151.5t-152.5 65.5h-90v275q68 0 117 48t49 117.5t-49 118t-116.5 48.5 t-117 -48.5t-49.5 -117.5v-1141h-268v651h-166z" />
<glyph unicode="&#xe0;" horiz-adv-x="1351" d="M121 506q0 217 149.5 369.5t364.5 152.5q74 0 137.5 -23.5t91.5 -46.5l27 -24v80h260v-1014h-260v80q-10 -10 -29.5 -25.5t-86 -42t-140.5 -26.5q-215 0 -364.5 152.5t-149.5 367.5zM274 1620h281l182 -350h-153zM383 505.5q0 -104.5 74.5 -181t177 -76.5t180.5 76.5 t78 181t-78 182.5t-180.5 78t-177 -78t-74.5 -182.5z" />
<glyph unicode="&#xe1;" horiz-adv-x="1351" d="M121 506q0 217 149.5 369.5t364.5 152.5q74 0 137.5 -23.5t91.5 -46.5l27 -24v80h260v-1014h-260v80q-10 -10 -29.5 -25.5t-86 -42t-140.5 -26.5q-215 0 -364.5 152.5t-149.5 367.5zM383 505.5q0 -104.5 74.5 -181t177 -76.5t180.5 76.5t78 181t-78 182.5t-180.5 78 t-177 -78t-74.5 -182.5zM563 1270l182 350h281l-309 -350h-154z" />
<glyph unicode="&#xe2;" horiz-adv-x="1351" d="M121 506q0 217 149.5 369.5t364.5 152.5q74 0 137.5 -23.5t91.5 -46.5l27 -24v80h260v-1014h-260v80q-10 -10 -29.5 -25.5t-86 -42t-140.5 -26.5q-215 0 -364.5 152.5t-149.5 367.5zM354 1233l183 350h276l182 -350h-153l-166 180l-168 -180h-154zM383 505.5 q0 -104.5 74.5 -181t177 -76.5t180.5 76.5t78 181t-78 182.5t-180.5 78t-177 -78t-74.5 -182.5z" />
<glyph unicode="&#xe3;" horiz-adv-x="1351" d="M121 506q0 217 149.5 369.5t364.5 152.5q74 0 137.5 -23.5t91.5 -46.5l27 -24v80h260v-1014h-260v80q-10 -10 -29.5 -25.5t-86 -42t-140.5 -26.5q-215 0 -364.5 152.5t-149.5 367.5zM344 1192q55 246 215 246q31 0 90 -17l94 -26q25 -8 58 -9q68 0 88 87h119 q-31 -131 -83.5 -192.5t-136.5 -61.5q-43 0 -75 10l-92 26q-53 14 -68 15q-63 0 -90 -78h-119zM383 505.5q0 -104.5 74.5 -181t177 -76.5t180.5 76.5t78 181t-78 182.5t-180.5 78t-177 -78t-74.5 -182.5z" />
<glyph unicode="&#xe4;" horiz-adv-x="1351" d="M121 506q0 217 149.5 369.5t364.5 152.5q74 0 137.5 -23.5t91.5 -46.5l27 -24v80h260v-1014h-260v80q-10 -10 -29.5 -25.5t-86 -42t-140.5 -26.5q-215 0 -364.5 152.5t-149.5 367.5zM336 1333q0 55 44 98.5t101 43.5q59 0 100.5 -41t41.5 -101q0 -63 -40 -104t-102 -41 q-59 0 -102 43t-43 102zM383 505.5q0 -104.5 74.5 -181t177 -76.5t180.5 76.5t78 181t-78 182.5t-180.5 78t-177 -78t-74.5 -182.5zM727 1333q0 55 43 98.5t100 43.5q59 0 101.5 -41t42.5 -101q0 -63 -41 -104t-103 -41q-59 0 -101 43t-42 102z" />
<glyph unicode="&#xe5;" horiz-adv-x="1351" d="M125 504q0 217 149.5 369.5t364.5 152.5q74 0 138.5 -23.5t90.5 -48.5l29 -22v80h270v-1012h-270v78q-10 -10 -29.5 -25.5t-87 -42t-141.5 -26.5q-215 0 -364.5 152.5t-149.5 367.5zM373 1370.5q0 110.5 77.5 188t188.5 77.5q109 0 186.5 -77.5t77.5 -188t-76.5 -188.5 t-187.5 -78t-188.5 78t-77.5 188.5zM397 503.5q0 -104.5 70 -177t172 -72.5t176 73.5t74 176.5q0 104 -74 177t-176 73t-172 -73t-70 -177.5zM526 1370q0 -47 34 -80t79 -33q47 0 79 33t32 80t-32 80t-79 33q-45 0 -79 -33t-34 -80z" />
<glyph unicode="&#xe6;" horiz-adv-x="1732" d="M88 328q0 139 98.5 230t237.5 91q49 0 92 -8t62 -16l18 -9v52q0 70 -61 94q-29 16 -78 9t-82 -40l-182 180q86 86 207.5 109.5t236.5 -23.5q80 -33 137 -116q66 70 158 108.5t184 38.5q213 0 369 -151q100 -100 135 -232.5t2 -263.5h-156h-123h-452q12 -27 41 -57 q74 -74 185.5 -74t182.5 74l185 -185q-154 -154 -369 -153q-100 0 -195.5 42t-146.5 111q-123 -154 -350 -153q-152 0 -244 98t-92 244zM332 327.5q0 -51.5 40 -88t97 -36.5t98 35.5t41 89t-41 89.5t-98 36t-97 -37t-40 -88.5zM877 608h499q-25 53 -55 84q-78 78 -194.5 78 t-194.5 -78q-37 -37 -55 -84z" />
<glyph unicode="&#xe7;" horiz-adv-x="944" d="M77.5 507q0.5 216 149.5 370q156 152 371 151q213 0 369 -151l-187 -187q-72 74 -182.5 74t-183.5 -74q-72 -72 -72 -183.5t72 -182.5q74 -74 185 -74t183 72q131 -131 185 -183q-154 -154 -369 -153q-217 0 -371 153q-150 152 -149.5 368zM391 -295q4 -86 60 -145 q61 -61 147 -62q88 0 150 62q59 61 59 147t-59 148q-61 61 -150 61h-12l37 84h-131l-80 -201l104 -35q31 43 82 43q43 0 72.5 -29.5t29.5 -70.5t-29.5 -69.5t-72.5 -28.5q-41 0 -69.5 27.5t-28.5 68.5h-109z" />
<glyph unicode="&#xe8;" horiz-adv-x="1251" d="M108.5 507q0.5 216 151.5 370q156 152 369 151.5t368 -151.5q100 -100 135.5 -232.5t2.5 -263.5h-732q55 -111 190.5 -128t219.5 71l184 -185q-154 -154 -368.5 -153.5t-368.5 153.5q-152 152 -151.5 368zM225 1620h281l182 -350h-153zM393 614h471q-37 94 -136 132 t-198.5 1t-136.5 -133z" />
<glyph unicode="&#xe9;" horiz-adv-x="1251" d="M108.5 507q0.5 216 151.5 370q156 152 369 151.5t368 -151.5q100 -100 135.5 -232.5t2.5 -263.5h-732q55 -111 190.5 -128t219.5 71l184 -185q-154 -154 -368.5 -153.5t-368.5 153.5q-152 152 -151.5 368zM393 614h471q-37 94 -136 132t-198.5 1t-136.5 -133zM514 1270 l183 350h280l-309 -350h-154z" />
<glyph unicode="&#xea;" horiz-adv-x="1251" d="M108.5 507q0.5 216 151.5 370q156 152 369 151.5t368 -151.5q100 -100 135.5 -232.5t2.5 -263.5h-732q55 -111 190.5 -128t219.5 71l184 -185q-154 -154 -368.5 -153.5t-368.5 153.5q-152 152 -151.5 368zM305 1233l182 350h277l182 -350h-153l-166 180l-168 -180h-154z M393 614h471q-37 94 -136 132t-198.5 1t-136.5 -133z" />
<glyph unicode="&#xeb;" horiz-adv-x="1251" d="M108.5 507q0.5 216 151.5 370q156 152 369 151.5t368 -151.5q100 -100 135.5 -232.5t2.5 -263.5h-732q55 -111 190.5 -128t219.5 71l184 -185q-154 -154 -368.5 -153.5t-368.5 153.5q-152 152 -151.5 368zM287 1333q0 55 44 98.5t101 43.5q59 0 100.5 -41t41.5 -101 q0 -63 -40 -104t-102 -41q-59 0 -102 43t-43 102zM393 614h471q-37 94 -136 132t-198.5 1t-136.5 -133zM678 1333q0 55 43 98.5t101 43.5q59 0 101 -41t42 -101q0 -63 -41 -104t-102 -41q-59 0 -101.5 43t-42.5 102z" />
<glyph unicode="&#xec;" d="M-31 1620h281l182 -350h-153zM176 0v1012h273v-1012h-273z" />
<glyph unicode="&#xed;" d="M176 0v1012h273v-1012h-273zM207 1270l182 350h281l-310 -350h-153z" />
<glyph unicode="&#xee;" d="M-2 1233l182 350h277l182 -350h-154l-166 180l-167 -180h-154zM176 0v1012h273v-1012h-273z" />
<glyph unicode="&#xef;" d="M-20 1333q0 55 44 98.5t101 43.5q59 0 100 -41t41 -101q0 -63 -40 -104t-101 -41q-59 0 -102 43t-43 102zM176 0v1012h273v-1012h-273zM371 1333q0 55 43 98.5t100 43.5q59 0 101 -41t42 -101q0 -63 -41 -104t-102 -41q-59 0 -101 43t-42 102z" />
<glyph unicode="&#xf0;" horiz-adv-x="1275" />
<glyph unicode="&#xf1;" horiz-adv-x="1337" d="M195 0v1014h262v-80q43 43 105.5 68.5t117.5 25.5q205 0 326.5 -135t121.5 -338v-555h-260v563q0 86 -61.5 149.5t-145 63.5t-144 -62.5t-60.5 -148.5v-565h-260h-2zM338 1192q55 246 215 246q31 0 90 -17l95 -26q25 -8 57 -9q68 0 88 87h119q-31 -131 -83 -192.5 t-136 -61.5q-43 0 -76 10l-92 26q-53 14 -68 15q-63 0 -90 -78h-119z" />
<glyph unicode="&#xf2;" horiz-adv-x="1275" d="M124.5 507q0.5 216 151.5 370q156 152 369 152t369 -152q154 -154 153.5 -370t-153.5 -368q-154 -154 -369 -153.5t-369 153.5q-152 152 -151.5 368zM238 1620h280l182 -350h-153zM387 508q0 -104 79 -183t181 -79q104 0 181 78.5t77 183.5q0 102 -76.5 180t-181.5 78 q-102 0 -181 -78t-79 -180z" />
<glyph unicode="&#xf3;" horiz-adv-x="1275" d="M124.5 507q0.5 216 151.5 370q156 152 369 152t369 -152q154 -154 153.5 -370t-153.5 -368q-154 -154 -369 -153.5t-369 153.5q-152 152 -151.5 368zM387 508q0 -104 79 -183t181 -79q104 0 181 78.5t77 183.5q0 102 -76.5 180t-181.5 78q-102 0 -181 -78t-79 -180z M526 1270l183 350h280l-309 -350h-154z" />
<glyph unicode="&#xf4;" horiz-adv-x="1275" d="M124.5 507q0.5 216 151.5 370q156 152 369 152t369 -152q154 -154 153.5 -370t-153.5 -368q-154 -154 -369 -153.5t-369 153.5q-152 152 -151.5 368zM317 1233l183 350h276l182 -350h-153l-166 180l-168 -180h-154zM387 508q0 -104 79 -183t181 -79q104 0 181 78.5 t77 183.5q0 102 -76.5 180t-181.5 78q-102 0 -181 -78t-79 -180z" />
<glyph unicode="&#xf5;" horiz-adv-x="1275" d="M124.5 507q0.5 216 151.5 370q156 152 369 152t369 -152q154 -154 153.5 -370t-153.5 -368q-154 -154 -369 -153.5t-369 153.5q-152 152 -151.5 368zM307 1192q55 246 215 246q31 0 90 -17l95 -26q25 -8 57 -9q68 0 88 87h119q-31 -131 -83 -192.5t-136 -61.5 q-43 0 -76 10l-92 26q-53 14 -68 15q-63 0 -90 -78h-119zM387 508q0 -104 79 -183t181 -79q104 0 181 78.5t77 183.5q0 102 -76.5 180t-181.5 78q-102 0 -181 -78t-79 -180z" />
<glyph unicode="&#xf6;" horiz-adv-x="1275" d="M124.5 507q0.5 216 151.5 370q156 152 369 152t369 -152q154 -154 153.5 -370t-153.5 -368q-154 -154 -369 -153.5t-369 153.5q-152 152 -151.5 368zM299 1333q0 55 44 98.5t101 43.5q59 0 100.5 -41t41.5 -101q0 -63 -40 -104t-102 -41q-59 0 -102 43t-43 102zM387 508 q0 -104 79 -183t181 -79q104 0 181 78.5t77 183.5q0 102 -76.5 180t-181.5 78q-102 0 -181 -78t-79 -180zM690 1333q0 55 43 98.5t101 43.5q59 0 101 -41t42 -101q0 -63 -41 -104t-102 -41q-59 0 -101.5 43t-42.5 102z" />
<glyph unicode="&#xf7;" horiz-adv-x="1705" d="M254 496v231h1198v-231h-1198zM688 205q0 70 49 118t117 48t116 -48.5t48 -117.5q0 -68 -47 -116t-117 -48q-68 0 -117 48t-49 116zM688 1016q0 70 49 118t117 48t116 -48.5t48 -117.5q0 -68 -48 -116t-118 -48t-117 48t-47 116z" />
<glyph unicode="&#xf8;" horiz-adv-x="1275" d="M121 512q2 213 151 365q156 152 369 151q197 0 350 -135l133 137h64l-164 -170q143 -154 139 -363.5t-153 -357.5q-154 -154 -369 -153q-197 0 -342 127l-111 -113h-65l141 145q-145 154 -143 367zM391 508q0 -94 64 -168l346 358q-70 59 -160 60q-102 0 -176 -74 t-74 -176zM487 307q68 -51 154 -51q104 0 177 73.5t73 178.5q0 86 -57 158z" />
<glyph unicode="&#xf9;" horiz-adv-x="1292" d="M174 461q0 -197 139.5 -336t335.5 -139q195 0 334 139t139 336v553h-258v-553q0 -84 -65.5 -148.5t-149.5 -64.5q-86 0 -150.5 64.5t-64.5 148.5v553h-260v-553zM246 1620h280l183 -350h-154z" />
<glyph unicode="&#xfa;" horiz-adv-x="1292" d="M174 461v553h260v-553q0 -84 64.5 -148.5t150.5 -64.5q84 0 149.5 64.5t65.5 148.5v553h258v-553q0 -197 -139 -336t-334 -139q-197 0 -336 139t-139 336zM534 1270l183 350h280l-309 -350h-154z" />
<glyph unicode="&#xfb;" horiz-adv-x="1292" d="M174 461q0 -197 139.5 -336t335.5 -139q195 0 334 139t139 336v553h-258v-553q0 -84 -65.5 -148.5t-149.5 -64.5q-86 0 -150.5 64.5t-64.5 148.5v553h-260v-553zM326 1233l182 350h276l183 -350h-154l-166 180l-168 -180h-153z" />
<glyph unicode="&#xfc;" horiz-adv-x="1292" d="M174 461v553h260v-553q0 -84 64.5 -148.5t150.5 -64.5q84 0 149.5 64.5t65.5 148.5v553h258v-553q0 -197 -139 -336t-334 -139q-197 0 -336 139t-139 336zM307 1333q0 55 44 98.5t101 43.5q59 0 100.5 -41t41.5 -101q0 -63 -40 -104t-102 -41q-59 0 -102 43t-43 102z M698 1333q0 55 43 98.5t101 43.5q59 0 101 -41t42 -101q0 -63 -41 -104t-102 -41q-59 0 -101.5 43t-42.5 102z" />
<glyph unicode="&#xfd;" horiz-adv-x="1089" d="M-29 1014h287l293 -723l274 723h285l-623 -1546h-290l211 518zM432 1270l182 350h281l-309 -350h-154z" />
<glyph unicode="&#xff;" horiz-adv-x="1089" d="M-29 1014l437 -1028l-211 -518h290l623 1546h-285l-274 -723l-293 723h-287zM205 1333q0 55 44 98.5t101 43.5q59 0 100.5 -41t41.5 -101q0 -63 -40 -104t-102 -41q-59 0 -102 43t-43 102zM596 1333q0 55 43 98.5t100 43.5q59 0 101.5 -41t42.5 -101q0 -63 -41 -104 t-103 -41q-59 0 -101 43t-42 102z" />
<glyph unicode="&#x152;" horiz-adv-x="2349" d="M143 791.5q0 332.5 236 568.5q240 233 567 233q170 0 344 -82v70h987v-278h-700v-392h608v-278h-608v-352h700v-281h-987v72q-176 -86 -344 -86q-330 0 -567 237q-236 236 -236 568.5zM430 791.5q0 -213.5 151.5 -365.5t364.5 -152q195 0 344 134v768q-150 131 -344 131 q-215 0 -364 -150q-152 -152 -152 -365.5z" />
<glyph unicode="&#x153;" horiz-adv-x="2009" d="M122.5 506q0.5 215 151.5 371q156 152 369 151.5t369 -151.5q156 152 368.5 152t368.5 -152q100 -100 135 -232.5t2 -263.5h-731q55 -111 190.5 -129.5t219.5 72.5l184 -185q-154 -154 -369 -153.5t-368 153.5q-154 -154 -369 -153.5t-369 153.5q-152 152 -151.5 367z M385 506q0 -102 79 -181t181 -79q104 0 181 77.5t77 182t-76.5 181.5t-181 77t-182.5 -77t-78 -181zM1145 612h471q-37 96 -136.5 134t-198.5 1t-136 -135z" />
<glyph unicode="&#x178;" horiz-adv-x="1222" d="M-41 1577l506 -909v-668h287v655l508 922h-310l-340 -582l-344 582h-307zM272 1806q0 55 44 98.5t102 43.5q59 0 100 -41t41 -101q0 -63 -40 -104t-101 -41q-59 0 -102.5 43t-43.5 102zM664 1806q0 55 43 98.5t100 43.5q59 0 101 -41t42 -101q0 -63 -41 -104t-102 -41 q-59 0 -101 43t-42 102z" />
<glyph unicode="&#x2c6;" horiz-adv-x="1024" d="M190 1233l183 350h276l182 -350h-153l-166 180l-168 -180h-154z" />
<glyph unicode="&#x2dc;" horiz-adv-x="1024" d="M180 1192q55 246 215 246q31 0 90 -17l95 -26q25 -8 57 -9q68 0 88 87h119q-31 -131 -83 -192.5t-136 -61.5q-43 0 -76 10l-92 26q-53 14 -68 15q-63 0 -90 -78h-119z" />
<glyph unicode="&#x2000;" horiz-adv-x="1046" />
<glyph unicode="&#x2001;" horiz-adv-x="2093" />
<glyph unicode="&#x2002;" horiz-adv-x="1046" />
<glyph unicode="&#x2003;" horiz-adv-x="2093" />
<glyph unicode="&#x2004;" horiz-adv-x="697" />
<glyph unicode="&#x2005;" horiz-adv-x="523" />
<glyph unicode="&#x2006;" horiz-adv-x="348" />
<glyph unicode="&#x2007;" horiz-adv-x="348" />
<glyph unicode="&#x2008;" horiz-adv-x="261" />
<glyph unicode="&#x2009;" horiz-adv-x="418" />
<glyph unicode="&#x200a;" horiz-adv-x="116" />
<glyph unicode="&#x2010;" horiz-adv-x="933" d="M176 494v235h578v-235h-578z" />
<glyph unicode="&#x2011;" horiz-adv-x="933" d="M176 494v235h578v-235h-578z" />
<glyph unicode="&#x2012;" horiz-adv-x="933" d="M176 494v235h578v-235h-578z" />
<glyph unicode="&#x2013;" horiz-adv-x="933" d="M0 494v227h934v-227h-934z" />
<glyph unicode="&#x2014;" horiz-adv-x="1609" d="M0 494v227h1610v-227h-1610z" />
<glyph unicode="&#x2018;" d="M156 1247q0 125 84 219.5t209 110.5v-41q-53 -6 -95.5 -40t-58.5 -83q20 4 31 4q70 0 121 -50t51 -120q0 -72 -50 -122t-122 -50q-70 0 -120 51.5t-50 120.5z" />
<glyph unicode="&#x2019;" d="M158 1407q0 72 50 122t122 50q70 0 120 -51t50 -121q0 -125 -84 -219t-209 -111v41q53 6 95 40t58 83q-20 -4 -30 -4q-70 0 -121 50t-51 120z" />
<glyph unicode="&#x201a;" d="M27 -295l213 627h372l-309 -627h-276z" />
<glyph unicode="&#x201c;" horiz-adv-x="1157" d="M156 1247q0 125 84 219.5t209 110.5v-41q-53 -6 -95.5 -40t-58.5 -83q20 4 31 4q70 0 121 -50t51 -120q0 -72 -50 -122t-122 -50q-70 0 -120 51.5t-50 120.5zM649 1247q0 125 84 219.5t209 110.5v-41q-53 -6 -95 -40t-59 -83q20 4 31 4q70 0 121 -50t51 -120 q0 -72 -51 -122t-120.5 -50t-120 51.5t-50.5 120.5z" />
<glyph unicode="&#x201d;" horiz-adv-x="1157" d="M158 1405q0 70 50 121t122 51q70 0 120 -51t50 -121q0 -125 -84 -219t-209 -111v41q53 6 95 40t58 83q-20 -4 -30 -4q-70 0 -121 50t-51 120zM651 1405q0 70 51.5 121t121 51t119.5 -51t50 -121q0 -125 -84 -219t-209 -111v41q53 6 95.5 40t58.5 83q-20 -4 -31 -4 q-70 0 -121 50t-51 120z" />
<glyph unicode="&#x201e;" horiz-adv-x="1157" d="M27 -295l213 627h372l-309 -627h-276zM545 -295l211 627h374l-309 -627h-276z" />
<glyph unicode="&#x2022;" horiz-adv-x="1208" d="M307 762q0 123 87 209t210 86q121 0 208 -86t87 -209q0 -121 -87 -209t-210 -88t-209 87t-86 210z" />
<glyph unicode="&#x2026;" horiz-adv-x="2048" d="M170 157.5q0 71.5 50 122t122 50.5t122 -50.5t50 -122t-50 -121.5t-122 -50t-122 50t-50 121.5zM844 157.5q0 71.5 51 122t120.5 50.5t121 -50.5t51.5 -122t-51.5 -121.5t-121 -50t-120.5 50t-51 121.5zM1538 157.5q0 71.5 50 122t122 50.5t122 -50.5t50 -122t-50 -121.5 t-122 -50t-122 50t-50 121.5z" />
<glyph unicode="&#x202f;" horiz-adv-x="418" />
<glyph unicode="&#x2039;" d="M45 502l358 489l193 -139l-264 -350l264 -355l-193 -133z" />
<glyph unicode="&#x203a;" d="M45 147l262 355l-262 350l191 139l360 -489l-360 -488z" />
<glyph unicode="&#x205f;" horiz-adv-x="523" />
<glyph unicode="&#x20ac;" horiz-adv-x="1730" d="M31 614l47 125h293q-4 33 -4 49q0 23 4 76h-248l47 123h221q49 209 193 365q102 113 240.5 176t292 63t291.5 -63.5t241 -173.5l-207 -193q-135 147 -325.5 147.5t-325.5 -147.5q-68 -74 -105 -174h631l-45 -123h-617q-6 -37 -6 -76q0 -8 1 -24t1 -25h574l-45 -125h-504 q37 -115 115 -198q133 -145 325 -150q185 4 316 137l200 -196q-215 -221 -514 -221h-2q-154 0 -292 63.5t-240 175.5q-154 166 -199 389h-354z" />
<glyph unicode="&#x2122;" horiz-adv-x="1607" d="M324 1362v94h372v-94h-141v-414h-90v414h-141zM772 948h90v352l176 -247l176 247v-352h91v508h-95l-172 -244l-174 244h-92v-508z" />
<glyph unicode="&#x25fc;" horiz-adv-x="1013" d="M0 0v1014h1014v-1014h-1014z" />
<glyph unicode="&#xfb01;" horiz-adv-x="1585" d="M88 754v258h225v196q0 178 126 304t304 126q184 0 312 -133l-187 -178q-53 53 -124.5 53t-122 -50t-50.5 -122v-196h224v-258h-224v-754h-258v754h-225zM1108 1380.5q0 -69.5 50 -121t122 -51.5t122 51.5t50 121t-50 120.5t-122 51t-122 -51t-50 -120.5zM1143 0v1012h272 v-1012h-272z" />
<glyph unicode="&#xfb02;" horiz-adv-x="1591" d="M90 754v258h225v196q0 178 126 304t304 126q184 0 312 -133l-187 -178q-53 53 -124.5 53t-122 -50t-50.5 -122v-196h224v-258h-224v-754h-258v754h-225zM1176 0v1622h270v-1622h-270z" />
</font>
</defs>
</svg>
