<?xml version="1.0" encoding="UTF-8" standalone="no"?>
<svg width="390px" height="270px" viewBox="0 0 390 270" version="1.1" xmlns="http://www.w3.org/2000/svg" xmlns:xlink="http://www.w3.org/1999/xlink" xmlns:sketch="http://www.bohemiancoding.com/sketch/ns">
    <!-- Generator: Sketch 3.3.3 (12081) - http://www.bohemiancoding.com/sketch -->
    <title>styleguide-logo</title>
    <desc>Created with Sketch.</desc>
    <defs></defs>
    <g id="Screen-Design" stroke="none" stroke-width="1" fill="none" fill-rule="evenodd" sketch:type="MSPage">
        <g id="styleguide-logo" sketch:type="MSArtboardGroup">
            <path d="M-761.25,-3079.75 L-473.085937,-2207.75 L-665.085937,-1465.75 L350.914063,-1197.75 L93.2421875,-912.257812 L-574.757812,-452.257812 L319.242188,-252.257812 L75.2421875,181.742187 L-412.757812,163.742187 L405.242188,797.742187 L-92.7578125,919.742188 L-39.75,1461.75 L151.242188,1745.71094 L-156.757812,2261.71094 L441.25,2967.75" id="Path-79" stroke="#C10017" stroke-width="60" sketch:type="MSShapeGroup" transform="translate(-160.000000, -56.000000) rotate(39.000000) translate(160.000000, 56.000000) "></path>
            <path d="M27.522,49 L30.304,49 L30.304,40.602 L38.754,40.602 L38.754,37.846 L30.304,37.846 L30.304,31.736 L40.002,31.736 L40.002,28.98 L27.522,28.98 L27.522,49 Z M49.778,35.948 C46.138,35.948 43.252,38.86 43.252,42.578 C43.252,46.27 46.138,49.182 49.778,49.182 C53.418,49.182 56.304,46.27 56.304,42.578 C56.304,38.86 53.418,35.948 49.778,35.948 L49.778,35.948 Z M49.778,46.582 C47.594,46.582 45.852,44.632 45.852,42.578 C45.852,40.394 47.672,38.548 49.778,38.548 C51.884,38.548 53.704,40.394 53.704,42.578 C53.704,44.736 51.858,46.582 49.778,46.582 L49.778,46.582 Z M68.706,36.52 C67.952,36.156 67.068,35.948 66.106,35.948 C63.688,35.948 62.57,37.664 62.57,37.664 L62.57,36.13 L59.97,36.13 L59.97,49 L62.57,49 L62.57,41.772 C62.648,39.952 64.052,38.418 65.846,38.418 C66.522,38.418 67.172,38.652 67.718,39.016 L68.706,36.52 Z M82.902,28.98 L80.12,28.98 L80.12,49 L82.902,49 L82.902,28.98 Z M96.812,49 L99.36,49 L99.36,41.928 C99.36,38.34 97.098,35.948 93.744,35.948 C91.326,35.948 90.208,37.664 90.208,37.664 L90.208,36.156 L87.608,36.156 L87.608,49 L90.208,49 L90.208,41.772 C90.208,40.914 90.546,40.056 91.17,39.432 C91.794,38.756 92.626,38.418 93.484,38.418 C95.278,38.418 96.812,39.952 96.812,41.798 L96.812,49 Z M105.106,49.026 L107.654,49.026 L107.654,38.574 L110.046,38.574 L110.046,36.104 L107.654,36.104 L107.654,31.502 L105.106,31.502 L105.106,36.104 L102.714,36.104 L102.714,38.574 L105.106,38.574 L105.106,49.026 Z M119.406,35.948 C115.766,35.948 112.906,38.86 112.906,42.578 C112.906,46.27 115.766,49.182 119.406,49.182 C121.252,49.182 122.89,48.428 124.06,47.232 L122.188,45.36 L122.162,45.386 C121.408,46.166 120.446,46.582 119.406,46.582 C117.664,46.582 116.234,45.36 115.688,43.852 L125.776,43.852 C126.634,39.848 123.436,35.948 119.406,35.948 L119.406,35.948 Z M119.406,38.548 C121.07,38.548 122.552,39.64 123.098,41.2 L115.688,41.2 C116.234,39.64 117.742,38.548 119.406,38.548 L119.406,38.548 Z M138.1,36.52 C137.346,36.156 136.462,35.948 135.5,35.948 C133.082,35.948 131.964,37.664 131.964,37.664 L131.964,36.13 L129.364,36.13 L129.364,49 L131.964,49 L131.964,41.772 C132.042,39.952 133.446,38.418 135.24,38.418 C135.916,38.418 136.566,38.652 137.112,39.016 L138.1,36.52 Z M149.462,45.386 C148.682,46.14 147.668,46.582 146.654,46.582 C145.614,46.582 144.652,46.166 143.898,45.386 C143.144,44.632 142.728,43.618 142.728,42.578 C142.728,40.394 144.548,38.548 146.654,38.548 C148.786,38.548 150.658,40.42 150.658,42.578 C150.658,43.618 150.216,44.632 149.462,45.386 L149.462,45.386 Z M150.632,36.13 L150.632,37.508 C150.632,37.508 149.15,35.948 146.654,35.948 C143.014,35.948 140.154,38.86 140.154,42.578 C140.154,46.27 143.014,49.182 146.654,49.182 C149.15,49.182 150.632,47.622 150.632,47.622 L150.632,49 L153.206,49 L153.206,36.13 L150.632,36.13 Z M166.154,45.36 L166.128,45.386 C165.374,46.166 164.412,46.582 163.372,46.582 C161.188,46.582 159.446,44.632 159.446,42.578 C159.446,40.394 161.266,38.548 163.372,38.548 C164.438,38.548 165.452,39.016 166.154,39.796 L168.026,37.924 C166.856,36.702 165.218,35.948 163.372,35.948 C159.732,35.948 156.872,38.86 156.872,42.578 C156.872,46.27 159.732,49.182 163.372,49.182 C165.218,49.182 166.856,48.428 168.026,47.232 L166.154,45.36 Z M173.018,49.026 L175.566,49.026 L175.566,38.574 L177.958,38.574 L177.958,36.104 L175.566,36.104 L175.566,31.502 L173.018,31.502 L173.018,36.104 L170.626,36.104 L170.626,38.574 L173.018,38.574 L173.018,49.026 Z M182.95,33.296 C183.912,33.296 184.692,32.516 184.692,31.554 C184.692,30.592 183.912,29.812 182.95,29.812 C181.988,29.812 181.208,30.592 181.208,31.554 C181.208,32.516 181.988,33.296 182.95,33.296 L182.95,33.296 Z M181.624,48.974 L184.224,48.974 L184.224,36.104 L181.624,36.104 L181.624,48.974 Z M194.728,35.948 C191.088,35.948 188.202,38.86 188.202,42.578 C188.202,46.27 191.088,49.182 194.728,49.182 C198.368,49.182 201.254,46.27 201.254,42.578 C201.254,38.86 198.368,35.948 194.728,35.948 L194.728,35.948 Z M194.728,46.582 C192.544,46.582 190.802,44.632 190.802,42.578 C190.802,40.394 192.622,38.548 194.728,38.548 C196.834,38.548 198.654,40.394 198.654,42.578 C198.654,44.736 196.808,46.582 194.728,46.582 L194.728,46.582 Z M214.124,49 L216.672,49 L216.672,41.928 C216.672,38.34 214.41,35.948 211.056,35.948 C208.638,35.948 207.52,37.664 207.52,37.664 L207.52,36.156 L204.92,36.156 L204.92,49 L207.52,49 L207.52,41.772 C207.52,40.914 207.858,40.056 208.482,39.432 C209.106,38.756 209.938,38.418 210.796,38.418 C212.59,38.418 214.124,39.952 214.124,41.798 L214.124,49 Z M38.26,73.768 C38.26,73.768 39.508,72.338 39.508,70.336 C39.508,67.398 37.142,64.98 34.23,64.98 L27.522,64.98 L27.522,85 L35.426,85 C38.702,84.974 41.406,82.244 41.406,78.968 C41.406,75.328 38.26,73.768 38.26,73.768 L38.26,73.768 Z M30.252,67.71 L34.23,67.71 C35.686,67.71 36.908,68.854 36.908,70.336 C36.908,71.818 35.686,72.962 34.23,72.962 L30.252,72.962 L30.252,67.71 Z M35.426,82.27 L30.252,82.27 L30.252,75.666 L35.426,75.666 C37.272,75.744 38.754,77.174 38.754,78.968 C38.754,80.814 37.246,82.27 35.426,82.27 L35.426,82.27 Z M46.736,91.76 L49.57,91.76 L57.474,72.13 L54.718,72.13 L50.766,82.348 L46.528,72.13 L43.746,72.13 L49.362,85.338 L46.736,91.76 Z M71.436,64.98 L68.654,64.98 L68.654,85 L71.436,85 L71.436,64.98 Z M85.346,85 L87.894,85 L87.894,77.928 C87.894,74.34 85.632,71.948 82.278,71.948 C79.86,71.948 78.742,73.664 78.742,73.664 L78.742,72.156 L76.142,72.156 L76.142,85 L78.742,85 L78.742,77.772 C78.742,76.914 79.08,76.056 79.704,75.432 C80.328,74.756 81.16,74.418 82.018,74.418 C83.812,74.418 85.346,75.952 85.346,77.798 L85.346,85 Z M93.64,85.026 L96.188,85.026 L96.188,74.574 L98.58,74.574 L98.58,72.104 L96.188,72.104 L96.188,67.502 L93.64,67.502 L93.64,72.104 L91.248,72.104 L91.248,74.574 L93.64,74.574 L93.64,85.026 Z M107.94,71.948 C104.3,71.948 101.44,74.86 101.44,78.578 C101.44,82.27 104.3,85.182 107.94,85.182 C109.786,85.182 111.424,84.428 112.594,83.232 L110.722,81.36 L110.696,81.386 C109.942,82.166 108.98,82.582 107.94,82.582 C106.198,82.582 104.768,81.36 104.222,79.852 L114.31,79.852 C115.168,75.848 111.97,71.948 107.94,71.948 L107.94,71.948 Z M107.94,74.548 C109.604,74.548 111.086,75.64 111.632,77.2 L104.222,77.2 C104.768,75.64 106.276,74.548 107.94,74.548 L107.94,74.548 Z M126.634,72.52 C125.88,72.156 124.996,71.948 124.034,71.948 C121.616,71.948 120.498,73.664 120.498,73.664 L120.498,72.13 L117.898,72.13 L117.898,85 L120.498,85 L120.498,77.772 C120.576,75.952 121.98,74.418 123.774,74.418 C124.45,74.418 125.1,74.652 125.646,75.016 L126.634,72.52 Z M137.996,81.386 C137.216,82.14 136.202,82.582 135.188,82.582 C134.148,82.582 133.186,82.166 132.432,81.386 C131.678,80.632 131.262,79.618 131.262,78.578 C131.262,76.394 133.082,74.548 135.188,74.548 C137.32,74.548 139.192,76.42 139.192,78.578 C139.192,79.618 138.75,80.632 137.996,81.386 L137.996,81.386 Z M139.166,72.13 L139.166,73.508 C139.166,73.508 137.684,71.948 135.188,71.948 C131.548,71.948 128.688,74.86 128.688,78.578 C128.688,82.27 131.548,85.182 135.188,85.182 C137.684,85.182 139.166,83.622 139.166,83.622 L139.166,85 L141.74,85 L141.74,72.13 L139.166,72.13 Z M154.688,81.36 L154.662,81.386 C153.908,82.166 152.946,82.582 151.906,82.582 C149.722,82.582 147.98,80.632 147.98,78.578 C147.98,76.394 149.8,74.548 151.906,74.548 C152.972,74.548 153.986,75.016 154.688,75.796 L156.56,73.924 C155.39,72.702 153.752,71.948 151.906,71.948 C148.266,71.948 145.406,74.86 145.406,78.578 C145.406,82.27 148.266,85.182 151.906,85.182 C153.752,85.182 155.39,84.428 156.56,83.232 L154.688,81.36 Z M161.552,85.026 L164.1,85.026 L164.1,74.574 L166.492,74.574 L166.492,72.104 L164.1,72.104 L164.1,67.502 L161.552,67.502 L161.552,72.104 L159.16,72.104 L159.16,74.574 L161.552,74.574 L161.552,85.026 Z M171.484,69.296 C172.446,69.296 173.226,68.516 173.226,67.554 C173.226,66.592 172.446,65.812 171.484,65.812 C170.522,65.812 169.742,66.592 169.742,67.554 C169.742,68.516 170.522,69.296 171.484,69.296 L171.484,69.296 Z M170.158,84.974 L172.758,84.974 L172.758,72.104 L170.158,72.104 L170.158,84.974 Z M183.262,71.948 C179.622,71.948 176.736,74.86 176.736,78.578 C176.736,82.27 179.622,85.182 183.262,85.182 C186.902,85.182 189.788,82.27 189.788,78.578 C189.788,74.86 186.902,71.948 183.262,71.948 L183.262,71.948 Z M183.262,82.582 C181.078,82.582 179.336,80.632 179.336,78.578 C179.336,76.394 181.156,74.548 183.262,74.548 C185.368,74.548 187.188,76.394 187.188,78.578 C187.188,80.736 185.342,82.582 183.262,82.582 L183.262,82.582 Z M202.658,85 L205.206,85 L205.206,77.928 C205.206,74.34 202.944,71.948 199.59,71.948 C197.172,71.948 196.054,73.664 196.054,73.664 L196.054,72.156 L193.454,72.156 L193.454,85 L196.054,85 L196.054,77.772 C196.054,76.914 196.392,76.056 197.016,75.432 C197.64,74.756 198.472,74.418 199.33,74.418 C201.124,74.418 202.658,75.952 202.658,77.798 L202.658,85 Z" id="For-Interaction-Copy-2" fill="#131514" sketch:type="MSShapeGroup"></path>
        </g>
    </g>
</svg>